USFL
nRows=200
nColumns=2
inDegrees=yes
endheader
time	tib_ant_r	
4.3246	 11.538523	
4.35786	 11.543682	
4.39113	 11.532268	
4.4244	 11.532891	
4.45766	 11.543958	
4.49093	 11.526584	
4.52419	 11.517042	
4.55746	 11.516078	
4.59073	 11.522639	
4.62399	 11.512945	
4.65726	 11.516053	
4.69052	 11.522126	
4.72379	 11.517027	
4.75706	 11.525930	
4.79032	 11.523084	
4.82359	 11.518682	
4.85685	 11.527493	
4.89012	 11.525208	
4.92339	 11.521767	
4.95665	 11.516500	
4.98992	 11.518559	
5.02319	 11.523330	
5.05645	 11.521224	
5.08972	 11.523273	
5.12298	 11.535956	
5.15625	 11.537316	
5.18952	 11.540620	
5.22278	 11.538479	
5.25605	 11.548306	
5.28931	 11.548893	
5.32258	 11.553664	
5.35585	 11.547154	
5.38911	 11.542994	
5.42238	 11.546603	
5.45565	 11.534645	
5.48891	 11.535073	
5.52218	 11.530386	
5.55544	 11.526789	
5.58871	 11.527548	
5.62198	 11.525866	
5.65524	 11.525945	
5.68851	 11.533131	
5.72177	 11.530646	
5.75504	 11.530173	
5.78831	 11.532683	
5.82157	 11.530043	
5.85484	 11.540992	
5.8881	 11.539591	
5.92137	 11.540557	
5.95464	 11.544531	
5.9879	 11.540714	
6.02117	 11.539565	
6.05444	 11.541243	
6.0877	 11.542318	
6.12097	 11.544523	
6.15423	 11.551081	
6.1875	 11.561743	
6.22077	 11.552075	
6.25403	 11.548574	
6.2873	 11.566226	
6.32056	 11.563872	
6.35383	 11.563341	
6.3871	 11.570578	
6.42036	 11.566676	
6.45363	 11.569673	
6.4869	 11.579032	
6.52016	 11.704302	
6.55343	 11.791447	
6.58669	 11.816494	
6.61996	 11.926884	
6.65323	 12.038410	
6.68649	 12.130781	
6.71976	 12.429791	
6.75302	 12.704176	
6.78629	 13.001645	
6.81956	 13.199819	
6.85282	 13.226100	
6.88609	 13.312244	
6.91935	 13.369735	
6.95262	 13.508744	
6.98589	 13.811188	
7.01915	 13.949980	
7.05242	 14.101593	
7.08569	 14.061140	
7.11895	 14.093661	
7.15222	 14.121180	
7.18548	 13.989687	
7.21875	 13.918490	
7.25202	 13.884592	
7.28528	 13.873526	
7.31855	 13.864441	
7.35181	 13.854258	
7.38508	 13.854582	
7.41835	 13.839123	
7.45161	 13.812266	
7.48488	 13.747818	
7.51815	 13.710922	
7.55141	 13.791716	
7.58468	 13.818417	
7.61794	 13.809991	
7.65121	 13.816338	
7.68448	 13.839112	
7.71774	 13.848525	
7.75101	 13.896225	
7.78427	 13.897728	
7.81754	 13.914888	
7.85081	 13.910349	
7.88407	 13.897146	
7.91734	 13.895159	
7.9506	 13.891580	
7.98387	 13.907418	
8.01714	 13.926993	
8.0504	 13.898815	
8.08367	 13.897669	
8.11694	 13.913378	
8.1502	 13.884975	
8.18347	 13.881767	
8.21673	 13.888490	
8.25	 13.901412	
8.28327	 13.917566	
8.31653	 13.890721	
8.3498	 13.934580	
8.38306	 13.947137	
8.41633	 13.957653	
8.4496	 13.959256	
8.48286	 13.952575	
8.51613	 13.930950	
8.5494	 13.945299	
8.58266	 13.945597	
8.61593	 13.883017	
8.64919	 13.896082	
8.68246	 13.892820	
8.71573	 13.878629	
8.74899	 13.869927	
8.78226	 13.866416	
8.81552	 13.847867	
8.84879	 13.772960	
8.88206	 13.768774	
8.91532	 13.769182	
8.94859	 13.704665	
8.98185	 13.653730	
9.01512	 13.608017	
9.04839	 13.636647	
9.08165	 13.622779	
9.11492	 13.635724	
9.14819	 13.604856	
9.18145	 13.564760	
9.21472	 13.580877	
9.24798	 13.566382	
9.28125	 13.549355	
9.31452	 13.533115	
9.34778	 13.528492	
9.38105	 13.552798	
9.41431	 13.552534	
9.44758	 13.524023	
9.48085	 13.529910	
9.51411	 13.544509	
9.54738	 13.520778	
9.58065	 13.483763	
9.61391	 13.492808	
9.64718	 13.535596	
9.68044	 13.461557	
9.71371	 13.467142	
9.74698	 13.628659	
9.78024	 13.601512	
9.81351	 13.533403	
9.84677	 13.616408	
9.88004	 13.710987	
9.91331	 13.812607	
9.94657	 13.756511	
9.97984	 13.779564	
10.0131	 13.833208	
10.0464	 13.812897	
10.0796	 13.884165	
10.1129	 13.997626	
10.1462	 13.849125	
10.1794	 13.750391	
10.2127	 13.816007	
10.246	 13.784038	
10.2792	 13.764520	
10.3125	 13.774868	
10.3458	 13.814720	
10.379	 13.760062	
10.4123	 13.798024	
10.4456	 13.722452	
10.4788	 13.712963	
10.5121	 13.703919	
10.5454	 13.725894	
10.5786	 13.706228	
10.6119	 13.705974	
10.6452	 13.696020	
10.6784	 13.736670	
10.7117	 13.689889	
10.745	 13.694146	
10.7782	 13.620784	
10.8115	 13.645196	
10.8448	 13.624222	
10.878	 13.663432	
10.9113	 13.638825	
10.9446	 13.647176	
